PathFileType	4	(X/Y/Z)	C:\Users\Owen\Repositories\CapacitiveSensingKinematics\CSOptimalControl\OutputData\FilteredlIMUGyros.trc
DataRate	CameraRate	NumFrames	NumMarkers	Units	OrigDataRate	OrigDataStartFrame	OrigNumFrames
100	100	21	8	m	100	5292	7057
Frame#	Time	/bodyset/torso/torso_imu_offset			/bodyset/pelvis/pelvis_imu_offset			/bodyset/tibia_r/tibia_r_imu_offset			/bodyset/femur_r/femur_r_imu_offset			/bodyset/tibia_l/tibia_l_imu_offset			/bodyset/femur_l/femur_l_imu_offset			/bodyset/toes_r/toes_r_imu_offset			/bodyset/toes_l/toes_l_imu_offset			
		X1	Y1	Z1	X2	Y2	Z2	X3	Y3	Z3	X4	Y4	Z4	X5	Y5	Z5	X6	Y6	Z6	X7	Y7	Z7	X8	Y8	Z8	

5293	52.92	0.4563746476600968	0.6195866028785761	0.08155041801308432	-0.04674025623092503	-0.08862453061897052	0.7595974944773815	1.374787158670226	-0.02229945830551115	-1.269713517850624	-0.571137356806245	-0.6974629171367781	-0.4527304144713	1.060008893363549	1.073052737987488	2.757536634005925	0.4341435312697315	1.073572404938537	-0.9916936627820426	1.675825626190234	-2.47220262978551	-0.1043547814664817	0.6950013740716455	-5.561249716976707	0.6265593886400602	
5294	52.93	0.4683125309083718	0.609037478109806	0.1088630373671582	-0.1784761921333753	-0.07468324394996806	0.7830694420505004	2.53041123362195	0.3023110633438876	-1.531445781881773	-0.07280353244574334	-0.5629515304793011	-0.171579870944699	1.151150289456649	1.119244429598141	2.901742336279549	0.4793855069750227	1.11213358899685	-1.354464393858985	1.295580543386749	-1.73187125903075	0.04235249818968529	0.6572707107415671	-6.481727502360713	0.7411312016257647	
5295	52.94	0.4733726231183336	0.5627766167371154	0.1314688574296076	-0.2112780632492865	-0.094748186630996	0.76735269501321	3.421333472570277	0.4612746496476319	-1.686793947572197	0.5064895515934151	-0.5430886505072825	0.1228423081816155	1.235280393311444	1.182618224475172	3.033529180751011	0.5876100963799705	1.112231748578917	-1.73791398980998	0.8316144981415482	-1.093362002858555	0.1144447217729804	0.6102439017895448	-7.33490202318241	0.8880568494384438	
5296	52.95	0.4720746027907419	0.4812928722306272	0.1483275013946327	-0.1323399453188737	-0.1379773971489059	0.7250847283554701	3.826774258384307	0.4551349240437353	-1.697469345293943	1.050522504757857	-0.6256968987660564	0.2667552484010414	1.328122613907028	1.255305789445389	3.129387473445397	0.7417001047147488	1.074740035676847	-2.106888253799557	0.4149083243374302	-0.621288572068656	0.1386288680361755	0.5843618264725581	-7.999267424342338	1.083126691138371	
5297	52.96	0.465275052883683	0.3720637350299881	0.1612599908216406	0.02995368291974461	-0.1853158961027344	0.6779369737982416	3.721623232220294	0.3292622916792962	-1.572846921837979	1.452655727249265	-0.724148513258803	0.1528023077773481	1.455481442755067	1.321764276251149	3.16049040708402	0.9112140350880221	1.004136452940104	-2.428435597614107	0.1390992694228846	-0.3128627668288619	0.138617082088074	0.5937583488633869	-8.364513962675579	1.345589310391834	
5298	52.97	0.4542253591024848	0.2475816009744096	0.1739910168672166	0.2229140103385839	-0.2174283612704231	0.6454380230361023	3.211515065186767	0.1383665190556439	-1.3528351303102	1.620197368129513	-0.761317609100633	-0.2106295794225456	1.622871221862603	1.363176950999895	3.095157800122593	1.062985418308986	0.904788259724602	-2.680607451243878	0.01036913397180854	-0.1292139244367552	0.125122511152769	0.6321539744342614	-8.370101696368657	1.679175353241332	
5299	52.98	0.4405947999733308	0.1225184709634834	0.1904009471898774	0.3996778957782745	-0.2219703777067809	0.6333546109382312	2.424756707463401	-0.08253317102646951	-1.102631519753194	1.516603658369388	-0.7323169944727018	-0.7043694763768065	1.777186122060493	1.36480607132073	2.908462783186037	1.171086243352228	0.7756731484128647	-2.855505423005095	-0.02147840773811507	-0.02864002678125268	0.102253922003228	0.6922566036026573	-8.028233200111886	2.055562726115875	
5300	52.99	0.427462975889036	0.0100488223960325	0.2131453996798019	0.5388279678724317	-0.1980027320052208	0.6306530907938569	1.441565261600714	-0.321449777015921	-0.8939580476863003	1.204845472457286	-0.6829918974733464	-1.162375562274564	1.811280641242123	1.323658438517035	2.59798640088963	1.224290286611459	0.6072765334426713	-2.954997350351656	-0.009204909889540643	0.01889498436487294	0.07420402500968516	0.7748401801511561	-7.41072699906775	2.423482198933426	
5301	53	0.4203477101831322	-0.08139629764253327	0.2427728964635658	0.6430679456480082	-0.1560562904510435	0.6163184254552557	0.3077740057690241	-0.5647850800649411	-0.7719631416913652	0.8292695112793242	-0.6520353429511909	-1.451506952217158	1.629665759417193	1.253475167304105	2.194152792426173	1.227944756228931	0.3867810067762063	-2.983798512602494	0.008891520133409336	0.03262890401625837	0.04676410370551674	0.8781989239274336	-6.597038910982809	2.734498720838066	
5302	53.01	0.4263619374117575	-0.1494583688598358	0.2769019709578522	0.7243304976620651	-0.1136557538342866	0.5701268108339101	-0.8889771477571676	-0.7748634102209022	-0.7369940991454277	0.5368403482269288	-0.646980222205127	-1.521919856595642	1.222921548338625	1.177856577720414	1.753123202524411	1.197065484116439	0.1102538747635956	-2.946626822471153	0.01068158522584185	0.02581798016739239	0.02660713403619252	0.9878850908582686	-5.616240517945887	2.955981143070146	
5303	53.02	0.4512169419900348	-0.1971005307212911	0.3101175240757494	0.7890682169222888	-0.08803985537522532	0.4813573842792864	-1.966322583165863	-0.8996054182391522	-0.7561151919105727	0.4016939207644763	-0.6569749258420275	-1.410390379594743	0.686405669518847	1.109513393299269	1.333671490338877	1.144211835517639	-0.2080232662195507	-2.851400224823006	-0.009699715032997028	0.00758626131622152	0.01892066047839173	1.077057719951598	-4.43182301859895	3.063787896146513	
5304	53.03	0.4959394256780936	-0.2303262380541831	0.3354690470428641	0.8327977998020604	-0.08929615838411352	0.3519360310270679	-2.687107004091	-0.9039615177801665	-0.7879263749269998	0.4074935956512361	-0.6676078714707007	-1.207154343590825	0.1728820115632733	1.035856051222316	0.9753381308378966	1.071667394332113	-0.5366650352727482	-2.712694293042132	-0.04698370500116879	-0.01667112360508436	0.02477554599824539	1.111649844737884	-2.990176820057585	3.033012209905575	
5305	53.04	0.5558421559730616	-0.2552335601705258	0.3469854652162472	0.8443360659012211	-0.1172169344959025	0.1936718279842231	-2.865741899523568	-0.7889526094572543	-0.7996785893118521	0.4835162091149744	-0.6666109231998516	-1.00809230502341	-0.184160339437644	0.9260894889990783	0.6928718013574072	0.9725904966490648	-0.837054578694318	-2.548690183999414	-0.08944882383851439	-0.0435278141372312	0.04068860760925722	1.05111088917993	-1.312888249668411	2.846634577887957	
5306	53.05	0.6225419553887911	-0.275848978411576	0.3417181044882163	0.8145829020085222	-0.1626757808130801	0.02276276337768912	-2.45490449246367	-0.5882092867179507	-0.7721807659029052	0.5518705587621094	-0.6486345907667165	-0.8745126193365493	-0.3251366895223511	0.7471478444133193	0.481099611781811	0.836143497686908	-1.074952278999706	-2.374193221993356	-0.1241689802446377	-0.07014162997094485	0.06052619295482987	0.8557227915163679	0.4350152644887849	2.518453290805669	
5307	53.06	0.6872814472571169	-0.2938471826244551	0.3204004900634487	0.7439081935963423	-0.2115743075122881	-0.1443433290509974	-1.566453684947025	-0.3560747190044166	-0.7007190872003387	0.5542220044407821	-0.6181862316953844	-0.8175785318702935	-0.2631260347249727	0.4771965654933694	0.3159590807299246	0.6504063649370742	-1.227991637352086	-2.197932674007863	-0.1430370779187998	-0.09445032169462216	0.07801042508021731	0.5199689215489885	1.988752965566446	2.098553053073503	
5308	53.07	0.7431952831489788	-0.3096274247336849	0.2867589304240025	0.6437315588460045	-0.2493000756388847	-0.2927130371049869	-0.4372879853435604	-0.1520737565078498	-0.5982845901715687	0.4583104846131183	-0.5852037910064491	-0.8099899372999961	-0.04389795520899338	0.1220935934854974	0.1535886946454703	0.404008295395028	-1.287495696360982	-2.025108552442846	-0.14451882313839	-0.115724718831379	0.0881354969054708	0.1052362693987179	3.124571572509687	1.645569358646402	
5309	53.08	0.7857627385778249	-0.3230656627515538	0.2461220609066395	0.5316911355461454	-0.2644326407125254	-0.4106469313191358	0.6372624356446135	-0.02005517993745714	-0.4950144555270062	0.2589444655408616	-0.5573171403492062	-0.8120763163361063	0.2821676303020992	-0.2722389464183891	-0.05898718525169813	0.09059764171707463	-1.257077878350741	-1.860102969747669	-0.1321768505693205	-0.1344576172651895	0.08736076988181139	-0.2752879954953333	3.767806076431309	1.194120579090224	
5310	53.09	0.8124449488331509	-0.3332446470778865	0.2040786711530881	0.4243523796646856	-0.2509170883398922	-0.4925188015866958	1.382290992715891	0.02591191468191091	-0.4256668633785347	-0.02082638551311838	-0.5365899412890025	-0.7947919412390457	0.6552699994410401	-0.6334328662766509	-0.3601326604725605	-0.2840148166179557	-1.150638026274836	-1.707640388509628	-0.1128271933446239	-0.1515098086694107	0.07358884827508763	-0.5124241079066078	3.991981735991957	0.7477500670194587	
5311	53.1	0.8225089788659526	-0.3382442442829017	0.1654375468129874	0.3319476243974064	-0.208721175755165	-0.540368386745205	1.6138286908114	-0.002518221976716981	-0.4118889005486411	-0.3339870976575182	-0.5215557419763046	-0.748951260093593	0.9960772948063736	-0.9020614844642922	-0.7521641002979103	-0.6966120296827264	-0.9889561785777408	-1.573079683020893	-0.09326170879270435	-0.167165711630999	0.04660293811242912	-0.5513835079036756	3.948423395495579	0.2950095307205895	
5312	53.11	0.8169945701087896	-0.3359610397739465	0.1334562419136214	0.2568393618895377	-0.1433059494325714	-0.5619683567529998	1.288103754925422	-0.08116177463775602	-0.4541019826600335	-0.6241331748532788	-0.5099075256826759	-0.6813502257343917	1.220278462221943	-1.066571879234718	-1.197482497383246	-1.1082168164097	-0.7939868586885094	-1.461350037009668	-0.07720699258500259	-0.180808007576276	0.008661801642345826	-0.4067052883152249	3.792497316244317	-0.1705106874674479	
5313	53.12	0.7984369567771501	-0.3253142142506507	0.1095663811161869	0.1952588150329282	-0.06391720829629599	-0.5666237326483821	0.5202534985004186	-0.1813353225118637	-0.5365296511457289	-0.8461249204662223	-0.4990074441542013	-0.6051403419608471	1.272015610575949	-1.167244850020496	-1.635296712527985	-1.474442533432103	-0.5838664486257839	-1.375171334485236	-0.06513243107750405	-0.1910451761304235	-0.03555219355543632	-0.1415306995224374	3.639684074010042	-0.6395455129195433	
